<svg width="25" height="24" viewBox="0 0 25 24" fill="none" xmlns="http://www.w3.org/2000/svg">
<path d="M12.5 2C14.4401 1.99965 16.3385 2.56368 17.9637 3.62336C19.5889 4.68303 20.8707 6.19259 21.653 7.96804C22.4352 9.74349 22.6841 11.7082 22.3693 13.6226C22.0545 15.537 21.1896 17.3185 19.88 18.75" stroke="#B8B8BF" stroke-width="1.5" stroke-linecap="round" stroke-linejoin="round"/>
<path d="M12.5 8V16" stroke="#B8B8BF" stroke-width="1.5" stroke-linecap="round" stroke-linejoin="round"/>
<path d="M16.5 12H8.5" stroke="#B8B8BF" stroke-width="1.5" stroke-linecap="round" stroke-linejoin="round"/>
<path d="M3 8.875C2.68135 9.84366 2.51273 10.8554 2.5 11.875" stroke="#B8B8BF" stroke-width="1.5" stroke-linecap="round" stroke-linejoin="round"/>
<path d="M3.33008 16C3.89158 17.2918 4.71966 18.4505 5.76008 19.4" stroke="#B8B8BF" stroke-width="1.5" stroke-linecap="round" stroke-linejoin="round"/>
<path d="M5.13623 5.23493C5.41527 4.93116 5.71284 4.64495 6.02723 4.37793" stroke="#B8B8BF" stroke-width="1.5" stroke-linecap="round" stroke-linejoin="round"/>
<path d="M9.14404 21.42C11.6377 22.3084 14.3819 22.1718 16.775 21.04" stroke="#B8B8BF" stroke-width="1.5" stroke-linecap="round" stroke-linejoin="round"/>
</svg>
