<svg width="25" height="24" viewBox="0 0 25 24" fill="none" xmlns="http://www.w3.org/2000/svg">
<path d="M9.5 3H4.5C3.94772 3 3.5 3.44772 3.5 4V9C3.5 9.55228 3.94772 10 4.5 10H9.5C10.0523 10 10.5 9.55228 10.5 9V4C10.5 3.44772 10.0523 3 9.5 3Z" stroke="#7F7F85" stroke-width="1.8" stroke-linecap="round" stroke-linejoin="round"/>
<path d="M9.5 14H4.5C3.94772 14 3.5 14.4477 3.5 15V20C3.5 20.5523 3.94772 21 4.5 21H9.5C10.0523 21 10.5 20.5523 10.5 20V15C10.5 14.4477 10.0523 14 9.5 14Z" stroke="#7F7F85" stroke-width="1.8" stroke-linecap="round" stroke-linejoin="round"/>
<path d="M14.5 4H21.5" stroke="#7F7F85" stroke-width="1.8" stroke-linecap="round" stroke-linejoin="round"/>
<path d="M14.5 9H21.5" stroke="#7F7F85" stroke-width="1.8" stroke-linecap="round" stroke-linejoin="round"/>
<path d="M14.5 15H21.5" stroke="#7F7F85" stroke-width="1.8" stroke-linecap="round" stroke-linejoin="round"/>
<path d="M14.5 20H21.5" stroke="#7F7F85" stroke-width="1.8" stroke-linecap="round" stroke-linejoin="round"/>
</svg>
