<svg width="25" height="24" viewBox="0 0 25 24" fill="none" xmlns="http://www.w3.org/2000/svg">
<path d="M12.5 22C18.0228 22 22.5 17.5228 22.5 12C22.5 6.47715 18.0228 2 12.5 2C6.97715 2 2.5 6.47715 2.5 12C2.5 17.5228 6.97715 22 12.5 22Z" stroke="#7F7F85" stroke-width="1.8" stroke-linecap="round" stroke-linejoin="round"/>
<path d="M12.5 13C14.1569 13 15.5 11.6569 15.5 10C15.5 8.34315 14.1569 7 12.5 7C10.8431 7 9.5 8.34315 9.5 10C9.5 11.6569 10.8431 13 12.5 13Z" stroke="#7F7F85" stroke-width="1.8" stroke-linecap="round" stroke-linejoin="round"/>
<path d="M7.5 20.662V19C7.5 18.4696 7.71071 17.9609 8.08579 17.5858C8.46086 17.2107 8.96957 17 9.5 17H15.5C16.0304 17 16.5391 17.2107 16.9142 17.5858C17.2893 17.9609 17.5 18.4696 17.5 19V20.662" stroke="#7F7F85" stroke-width="1.8" stroke-linecap="round" stroke-linejoin="round"/>
</svg>
